<svg xmlns="http://www.w3.org/2000/svg" xmlns:xlink="http://www.w3.org/1999/xlink" width="720" zoomAndPan="magnify" viewBox="0 0 540 540.000001" height="720" preserveAspectRatio="xMidYMid meet" version="1.0"><defs><clipPath id="f53b5c8c87"><path d="M 8.25 7.75 L 531.75 7.75 L 531.75 531.253906 L 8.25 531.253906 Z M 8.25 7.75 " clip-rule="nonzero"/></clipPath><clipPath id="6f79597f68"><path d="M 270 7.75 C 125.4375 7.75 8.25 124.9375 8.25 269.5 C 8.25 414.0625 125.4375 531.253906 270 531.253906 C 414.5625 531.253906 531.75 414.0625 531.75 269.5 C 531.75 124.9375 414.5625 7.75 270 7.75 Z M 270 7.75 " clip-rule="nonzero"/></clipPath><clipPath id="e90f052a93"><path d="M 151 325 L 389 325 L 389 461.457031 L 151 461.457031 Z M 151 325 " clip-rule="nonzero"/></clipPath><clipPath id="8757ed9c3c"><path d="M 140.101562 77.417969 L 399.871094 77.417969 L 399.871094 326 L 140.101562 326 Z M 140.101562 77.417969 " clip-rule="nonzero"/></clipPath></defs><g clip-path="url(#f53b5c8c87)"><g clip-path="url(#6f79597f68)"><path fill="#0bac94" d="M 8.25 7.75 L 531.75 7.75 L 531.75 531.253906 L 8.25 531.253906 Z M 8.25 7.75 " fill-opacity="1" fill-rule="nonzero"/></g></g><g clip-path="url(#e90f052a93)"><path fill="#ffffff" d="M 367.835938 364.074219 L 315.15625 326.71875 C 313.550781 325.582031 311.46875 325.109375 309.578125 325.675781 C 307.589844 326.148438 305.984375 327.378906 305.039062 329.175781 L 270.046875 395.945312 L 235.054688 329.175781 C 234.109375 327.378906 232.5 326.148438 230.515625 325.675781 C 228.625 325.203125 226.542969 325.582031 224.933594 326.71875 L 172.257812 364.074219 C 159.113281 373.339844 151.261719 388.566406 151.261719 404.644531 L 151.261719 454.675781 C 151.261719 458.457031 154.382812 461.578125 158.167969 461.578125 C 161.949219 461.578125 165.070312 458.457031 165.070312 454.675781 L 165.070312 404.644531 C 165.070312 393.011719 170.746094 382.042969 180.203125 375.328125 L 226.449219 342.605469 L 263.898438 414.007812 C 266.261719 418.546875 273.734375 418.546875 276.097656 414.007812 L 313.550781 342.605469 L 359.796875 375.328125 C 369.253906 382.042969 374.929688 393.011719 374.929688 404.644531 L 374.929688 454.675781 C 374.929688 458.457031 378.046875 461.578125 381.832031 461.578125 C 385.613281 461.578125 388.734375 458.457031 388.734375 454.675781 L 388.734375 404.644531 C 388.832031 388.566406 380.980469 373.4375 367.835938 364.074219 Z M 367.835938 364.074219 " fill-opacity="1" fill-rule="nonzero"/></g><g clip-path="url(#8757ed9c3c)"><path fill="#ffffff" d="M 396.300781 294.75 L 371.238281 276.121094 C 377.671875 261.460938 392.613281 218.621094 380.035156 161.308594 C 361.972656 78.367188 270.992188 77.421875 270.046875 77.421875 C 269.101562 77.421875 178.121094 78.367188 159.964844 161.308594 C 147.386719 218.621094 162.421875 261.460938 168.757812 276.121094 L 143.695312 294.847656 C 140.953125 296.925781 140.101562 300.710938 141.804688 303.734375 C 147.667969 314.328125 165.921875 332.109375 193.0625 323.691406 C 196.753906 322.554688 198.738281 318.679688 197.601562 314.988281 C 196.46875 311.394531 192.589844 309.316406 188.996094 310.449219 C 173.109375 315.460938 162.609375 307.425781 157.503906 301.75 L 181.621094 283.78125 C 184.363281 281.699219 185.214844 278.011719 183.605469 274.984375 C 183.324219 274.511719 159.394531 228.929688 173.582031 164.242188 C 189.375 92.269531 266.832031 91.230469 270.140625 91.230469 C 273.449219 91.230469 351 92.269531 366.699219 164.242188 C 380.886719 228.832031 356.863281 274.511719 356.582031 274.984375 C 354.972656 278.011719 355.730469 281.792969 358.566406 283.78125 L 382.683594 301.75 C 377.671875 307.425781 367.363281 315.367188 351.191406 310.355469 C 347.597656 309.222656 343.71875 311.300781 342.582031 314.894531 C 341.449219 318.582031 343.53125 322.367188 347.125 323.597656 C 352.042969 325.109375 356.675781 325.769531 361.027344 325.769531 C 380.414062 325.769531 393.558594 312.246094 398.382812 303.640625 C 399.894531 300.613281 399.042969 296.832031 396.300781 294.75 Z M 396.300781 294.75 " fill-opacity="1" fill-rule="nonzero"/></g><path fill="#ffffff" d="M 347.691406 220.511719 C 347.691406 199.421875 341.636719 178.710938 330.574219 162.253906 C 329.4375 160.648438 327.734375 159.511719 325.75 159.226562 C 323.859375 159.039062 321.777344 159.605469 320.265625 160.929688 C 278.746094 197.625 216.421875 209.730469 198.359375 212.566406 C 195.050781 213.039062 192.683594 215.878906 192.496094 219.1875 C 192.496094 219.28125 192.402344 220.511719 192.402344 220.605469 C 192.402344 271.863281 227.203125 313.664062 270.046875 313.664062 C 312.886719 313.570312 347.691406 271.863281 347.691406 220.511719 Z M 206.398438 225.238281 C 232.3125 220.605469 283.757812 208.027344 323.101562 176.628906 C 330.101562 189.585938 333.882812 204.90625 333.882812 220.511719 C 333.882812 264.203125 305.226562 299.761719 270.046875 299.761719 C 236.1875 299.761719 208.382812 266.851562 206.398438 225.238281 Z M 206.398438 225.238281 " fill-opacity="1" fill-rule="nonzero"/><path fill="#ffffff" d="M 340.785156 407.765625 L 315.0625 407.765625 C 311.28125 407.765625 308.160156 410.886719 308.160156 414.667969 C 308.160156 418.453125 311.28125 421.574219 315.0625 421.574219 L 340.785156 421.574219 C 344.570312 421.574219 347.691406 418.453125 347.691406 414.667969 C 347.691406 410.886719 344.570312 407.765625 340.785156 407.765625 Z M 340.785156 407.765625 " fill-opacity="1" fill-rule="nonzero"/><path stroke-linecap="butt" transform="matrix(0.748614, -0.0000000000000013, 0.0000000000000013, 0.748614, 307.747341, 400.078979)" fill="none" stroke-linejoin="miter" d="M -0.00166576 16.498107 L 64.779539 16.498107 " stroke="#0bac94" stroke-width="33" stroke-opacity="1" stroke-miterlimit="4"/></svg>